{
  "accessors": [
    {
      "bufferView": 0,
      "componentType": 5126,
      "count": 1465,
      "type": "VEC3",
      "max": [
        1.2999290227890015,
        5.5618104934692383,
        1.3186328411102295
      ],
      "min": [
        -1.4311226606369019,
        1.1547303074621595E-05,
        -1.1224324703216553
      ]
    },
    {
      "bufferView": 1,
      "componentType": 5126,
      "count": 1465,
      "type": "VEC3",
      "max": [
        0.99893027544021606,
        1.0,
        0.99866485595703125
      ],
      "min": [
        -0.99711644649505615,
        -1.0,
        -0.995407223701477
      ]
    },
    {
      "bufferView": 2,
      "componentType": 5126,
      "count": 1465,
      "type": "VEC4",
      "max": [
        1.0,
        0.99868422746658325,
        0.99947136640548706,
        -1.0
      ],
      "min": [
        -0.99674063920974731,
        -0.99898248910903931,
        -0.99940776824951172,
        -1.0
      ]
    },
    {
      "bufferView": 3,
      "componentType": 5126,
      "count": 1465,
      "type": "VEC2",
      "max": [
        0.20934581756591797,
        0.9586605429649353
      ],
      "min": [
        0.0662158727645874,
        0.81883144378662109
      ]
    },
    {
      "bufferView": 4,
      "componentType": 5125,
      "count": 1470,
      "type": "SCALAR",
      "max": [
        1464.0
      ],
      "min": [
        0.0
      ]
    },
    {
      "bufferView": 5,
      "componentType": 5126,
      "count": 4700,
      "type": "VEC3",
      "max": [
        1.3848669528961182,
        5.8115415573120117,
        1.4766765832901
      ],
      "min": [
        -1.3091939687728882,
        -0.0080845467746257782,
        -1.486231803894043
      ]
    },
    {
      "bufferView": 6,
      "componentType": 5126,
      "count": 4700,
      "type": "VEC3",
      "max": [
        0.99970155954360962,
        0.99950838088989258,
        0.99608838558197021
      ],
      "min": [
        -0.99994421005249023,
        -0.99528485536575317,
        -0.99675756692886353
      ]
    },
    {
      "bufferView": 7,
      "componentType": 5126,
      "count": 4700,
      "type": "VEC4",
      "max": [
        0.99905085563659668,
        0.99883294105529785,
        1.0,
        1.0
      ],
      "min": [
        -0.9999350905418396,
        -0.99823856353759766,
        -1.0,
        -1.0
      ]
    },
    {
      "bufferView": 8,
      "componentType": 5126,
      "count": 4700,
      "type": "VEC2",
      "max": [
        0.94001507759094238,
        0.93173837661743164
      ],
      "min": [
        0.074962727725505829,
        0.065814897418022156
      ]
    },
    {
      "bufferView": 9,
      "componentType": 5126,
      "count": 4700,
      "type": "VEC2",
      "max": [
        0.9980010986328125,
        0.9973176121711731
      ],
      "min": [
        0.00390625,
        0.00390625
      ]
    },
    {
      "bufferView": 10,
      "componentType": 5125,
      "count": 5232,
      "type": "SCALAR",
      "max": [
        4699.0
      ],
      "min": [
        0.0
      ]
    },
    {
      "bufferView": 11,
      "componentType": 5126,
      "count": 1171,
      "type": "VEC3",
      "max": [
        1.9913004636764526,
        4.9509539604187012,
        1.4463201761245728
      ],
      "min": [
        -1.7895591259002686,
        0.00025281001580879092,
        -1.6881319284439087
      ]
    },
    {
      "bufferView": 12,
      "componentType": 5126,
      "count": 1171,
      "type": "VEC3",
      "max": [
        0.99200469255447388,
        0.99714642763137817,
        0.99873131513595581
      ],
      "min": [
        -0.99087464809417725,
        -0.999962329864502,
        -0.99909770488739014
      ]
    },
    {
      "bufferView": 13,
      "componentType": 5126,
      "count": 1171,
      "type": "VEC4",
      "max": [
        0.032241225242614746,
        0.22143499553203583,
        0.999984860420227,
        1.0
      ],
      "min": [
        -0.99999940395355225,
        -0.34667593240737915,
        -0.99994850158691406,
        -1.0
      ]
    },
    {
      "bufferView": 14,
      "componentType": 5126,
      "count": 1171,
      "type": "VEC2",
      "max": [
        0.14989492297172546,
        0.99592316150665283
      ],
      "min": [
        0.072189018130302429,
        0.82011306285858154
      ]
    },
    {
      "bufferView": 15,
      "componentType": 5126,
      "count": 1171,
      "type": "VEC4",
      "max": [
        1.0,
        1.0,
        1.0,
        1.0
      ],
      "min": [
        1.0,
        1.0,
        1.0,
        1.0
      ]
    },
    {
      "bufferView": 16,
      "componentType": 5125,
      "count": 1248,
      "type": "SCALAR",
      "max": [
        1170.0
      ],
      "min": [
        0.0
      ]
    },
    {
      "bufferView": 17,
      "componentType": 5126,
      "count": 1102,
      "type": "VEC3",
      "max": [
        0.816704511642456,
        4.2011570930480957,
        0.84532427787780762
      ],
      "min": [
        -0.85361689329147339,
        -0.016915176063776016,
        -0.85283583402633667
      ]
    },
    {
      "bufferView": 18,
      "componentType": 5126,
      "count": 1102,
      "type": "VEC3",
      "max": [
        0.99958354234695435,
        0.99995553493499756,
        0.99649769067764282
      ],
      "min": [
        -0.99681997299194336,
        -0.99980288743972778,
        -0.994446873664856
      ]
    },
    {
      "bufferView": 19,
      "componentType": 5126,
      "count": 1102,
      "type": "VEC4",
      "max": [
        -0.017187157645821571,
        0.0024259777273982763,
        0.99924939870834351,
        1.0
      ],
      "min": [
        -0.99999368190765381,
        -0.0024272999726235867,
        -0.99985229969024658,
        -1.0
      ]
    },
    {
      "bufferView": 20,
      "componentType": 5126,
      "count": 1102,
      "type": "VEC2",
      "max": [
        0.18442860245704651,
        0.99889916181564331
      ],
      "min": [
        0.044611070305109024,
        0.81498271226882935
      ]
    },
    {
      "bufferView": 21,
      "componentType": 5125,
      "count": 1278,
      "type": "SCALAR",
      "max": [
        1101.0
      ],
      "min": [
        0.0
      ]
    },
    {
      "bufferView": 22,
      "componentType": 5126,
      "count": 918,
      "type": "VEC3",
      "max": [
        1.0954430103302002,
        4.0553450584411621,
        0.41913208365440369
      ],
      "min": [
        -0.60781556367874146,
        0.0,
        -0.955180823802948
      ]
    },
    {
      "bufferView": 23,
      "componentType": 5126,
      "count": 918,
      "type": "VEC3",
      "max": [
        0.97333073616027832,
        0.99982798099517822,
        0.99691832065582275
      ],
      "min": [
        -0.99808913469314575,
        -1.0,
        -0.9984009861946106
      ]
    },
    {
      "bufferView": 24,
      "componentType": 5126,
      "count": 918,
      "type": "VEC4",
      "max": [
        1.0,
        0.96285569667816162,
        0.99164271354675293,
        1.0
      ],
      "min": [
        -0.75186198949813843,
        -0.99039769172668457,
        -0.71746736764907837,
        -1.0
      ]
    },
    {
      "bufferView": 25,
      "componentType": 5126,
      "count": 918,
      "type": "VEC2",
      "max": [
        0.34574389457702637,
        0.98718905448913574
      ],
      "min": [
        0.321247398853302,
        0.85374665260314941
      ]
    },
    {
      "bufferView": 26,
      "componentType": 5125,
      "count": 1440,
      "type": "SCALAR",
      "max": [
        917.0
      ],
      "min": [
        0.0
      ]
    }
  ],
  "asset": {
    "generator": "Plattar UnityGLTF (2019.4.29f1)",
    "version": "2.0"
  },
  "buffers": [
    {
      "uri": "p_tree.bin",
      "byteLength": 548096
    }
  ],
  "bufferViews": [
    {
      "buffer": 0,
      "byteLength": 17580
    },
    {
      "buffer": 0,
      "byteOffset": 17580,
      "byteLength": 17580
    },
    {
      "buffer": 0,
      "byteOffset": 35160,
      "byteLength": 23440
    },
    {
      "buffer": 0,
      "byteOffset": 58600,
      "byteLength": 11720
    },
    {
      "buffer": 0,
      "byteOffset": 70320,
      "byteLength": 5880
    },
    {
      "buffer": 0,
      "byteOffset": 76200,
      "byteLength": 56400
    },
    {
      "buffer": 0,
      "byteOffset": 132600,
      "byteLength": 56400
    },
    {
      "buffer": 0,
      "byteOffset": 189000,
      "byteLength": 75200
    },
    {
      "buffer": 0,
      "byteOffset": 264200,
      "byteLength": 37600
    },
    {
      "buffer": 0,
      "byteOffset": 301800,
      "byteLength": 37600
    },
    {
      "buffer": 0,
      "byteOffset": 339400,
      "byteLength": 20928
    },
    {
      "buffer": 0,
      "byteOffset": 360328,
      "byteLength": 14052
    },
    {
      "buffer": 0,
      "byteOffset": 374380,
      "byteLength": 14052
    },
    {
      "buffer": 0,
      "byteOffset": 388432,
      "byteLength": 18736
    },
    {
      "buffer": 0,
      "byteOffset": 407168,
      "byteLength": 9368
    },
    {
      "buffer": 0,
      "byteOffset": 416536,
      "byteLength": 18736
    },
    {
      "buffer": 0,
      "byteOffset": 435272,
      "byteLength": 4992
    },
    {
      "buffer": 0,
      "byteOffset": 440264,
      "byteLength": 13224
    },
    {
      "buffer": 0,
      "byteOffset": 453488,
      "byteLength": 13224
    },
    {
      "buffer": 0,
      "byteOffset": 466712,
      "byteLength": 17632
    },
    {
      "buffer": 0,
      "byteOffset": 484344,
      "byteLength": 8816
    },
    {
      "buffer": 0,
      "byteOffset": 493160,
      "byteLength": 5112
    },
    {
      "buffer": 0,
      "byteOffset": 498272,
      "byteLength": 11016
    },
    {
      "buffer": 0,
      "byteOffset": 509288,
      "byteLength": 11016
    },
    {
      "buffer": 0,
      "byteOffset": 520304,
      "byteLength": 14688
    },
    {
      "buffer": 0,
      "byteOffset": 534992,
      "byteLength": 7344
    },
    {
      "buffer": 0,
      "byteOffset": 542336,
      "byteLength": 5760
    }
  ],
  "materials": [
    {
      "name": "SimpleNaturePack_Texture_01"
    },
    {
      "name": "Free_Tree"
    },
    {
      "name": "Low_Poly_Mat"
    }
  ],
  "meshes": [
    {
      "primitives": [
        {
          "attributes": {
            "POSITION": 0,
            "NORMAL": 1,
            "TANGENT": 2,
            "TEXCOORD_0": 3
          },
          "indices": 4,
          "material": 0
        }
      ],
      "name": "Tree_01 (3)"
    },
    {
      "primitives": [
        {
          "attributes": {
            "POSITION": 5,
            "NORMAL": 6,
            "TANGENT": 7,
            "TEXCOORD_0": 8,
            "TEXCOORD_1": 9
          },
          "indices": 10,
          "material": 1
        }
      ],
      "name": "Poplar_Tree (16)"
    },
    {
      "primitives": [
        {
          "attributes": {
            "POSITION": 11,
            "NORMAL": 12,
            "TANGENT": 13,
            "TEXCOORD_0": 14,
            "COLOR_0": 15
          },
          "indices": 16,
          "material": 0
        }
      ],
      "name": "Tree_03 (4)"
    },
    {
      "primitives": [
        {
          "attributes": {
            "POSITION": 17,
            "NORMAL": 18,
            "TANGENT": 19,
            "TEXCOORD_0": 20
          },
          "indices": 21,
          "material": 0
        }
      ],
      "name": "Tree_02 (7)"
    },
    {
      "primitives": [
        {
          "attributes": {
            "POSITION": 22,
            "NORMAL": 23,
            "TANGENT": 24,
            "TEXCOORD_0": 25
          },
          "indices": 26,
          "material": 2
        }
      ],
      "name": "Tree1 (4)"
    }
  ],
  "nodes": [
    {
      "children": [
        1,
        2,
        3,
        4,
        5,
        6,
        7,
        8,
        9,
        10,
        11,
        12,
        13,
        14,
        15,
        16,
        17,
        18,
        19,
        20,
        21,
        22,
        23,
        24,
        25,
        26,
        27,
        28,
        29,
        30,
        31,
        32,
        33,
        34,
        35,
        36,
        37,
        38,
        39,
        40,
        41
      ],
      "rotation": [
        0.0,
        0.0,
        0.0,
        -1.0
      ],
      "translation": [
        24.7478352,
        5.58172846,
        14.9847775
      ],
      "name": "p_tree"
    },
    {
      "mesh": 0,
      "rotation": [
        0.0,
        0.0,
        0.0,
        -1.0
      ],
      "scale": [
        0.7,
        0.7,
        0.7
      ],
      "translation": [
        -2.77783585,
        -3.4477284,
        -54.2947769
      ],
      "name": "Tree_01 (3)"
    },
    {
      "mesh": 1,
      "rotation": [
        2.18556941E-08,
        0.0,
        0.0,
        -1.0
      ],
      "scale": [
        1.3646,
        1.3646,
        1.3646
      ],
      "translation": [
        1.10216522,
        -3.3917284,
        -53.5347748
      ],
      "name": "Poplar_Tree (16)"
    },
    {
      "mesh": 1,
      "rotation": [
        2.18556941E-08,
        0.0,
        0.0,
        -1.0
      ],
      "scale": [
        1.2641,
        1.2641,
        1.2641
      ],
      "translation": [
        -5.857836,
        -3.3917284,
        -52.2847748
      ],
      "name": "Poplar_Tree (14)"
    },
    {
      "mesh": 2,
      "rotation": [
        0.0,
        0.0,
        0.0,
        -1.0
      ],
      "scale": [
        1.3641,
        1.3641,
        1.3641
      ],
      "translation": [
        -19.8878345,
        -3.46172857,
        -52.1147766
      ],
      "name": "Tree_03 (4)"
    },
    {
      "mesh": 2,
      "rotation": [
        0.0,
        0.0,
        0.0,
        -1.0
      ],
      "scale": [
        1.3024,
        1.3024,
        1.3024
      ],
      "translation": [
        -34.7778358,
        -3.46172857,
        -53.3247757
      ],
      "name": "Tree_03 (2)"
    },
    {
      "mesh": 3,
      "rotation": [
        0.0,
        0.0,
        0.0,
        -1.0
      ],
      "translation": [
        -33.7978363,
        -3.45172834,
        -34.8247757
      ],
      "name": "Tree_02 (7)"
    },
    {
      "mesh": 2,
      "rotation": [
        0.0,
        0.0,
        0.0,
        -1.0
      ],
      "scale": [
        0.7,
        0.7,
        0.7
      ],
      "translation": [
        -25.0378361,
        -3.46172857,
        -9.904778
      ],
      "name": "Tree_03 (7)"
    },
    {
      "mesh": 1,
      "rotation": [
        2.18556941E-08,
        0.0,
        0.0,
        -1.0
      ],
      "scale": [
        1.089,
        1.089,
        1.089
      ],
      "translation": [
        -39.4678345,
        -3.45172834,
        -11.8047771
      ],
      "name": "Poplar_Tree (21)"
    },
    {
      "mesh": 1,
      "rotation": [
        2.18556941E-08,
        0.0,
        0.0,
        -1.0
      ],
      "translation": [
        -21.0478344,
        -3.43172836,
        3.93522263
      ],
      "name": "Poplar_Tree (15)"
    },
    {
      "mesh": 1,
      "rotation": [
        2.18556941E-08,
        0.0,
        0.0,
        -1.0
      ],
      "translation": [
        -27.5678349,
        -3.3917284,
        -12.0347776
      ],
      "name": "Poplar_Tree (13)"
    },
    {
      "mesh": 1,
      "rotation": [
        2.18556941E-08,
        0.0,
        0.0,
        -1.0
      ],
      "scale": [
        0.68359,
        0.68359,
        0.68359
      ],
      "translation": [
        -17.3478355,
        -3.3917284,
        4.375223
      ],
      "name": "Poplar_Tree (17)"
    },
    {
      "mesh": 0,
      "rotation": [
        0.0,
        0.0,
        0.0,
        -1.0
      ],
      "translation": [
        -49.1378326,
        -3.4477284,
        -59.98478
      ],
      "name": "Tree_01 (27)"
    },
    {
      "mesh": 0,
      "rotation": [
        0.0,
        0.0,
        0.0,
        -1.0
      ],
      "translation": [
        -42.2978363,
        -3.4477284,
        -59.98478
      ],
      "name": "Tree_01 (28)"
    },
    {
      "mesh": 0,
      "rotation": [
        0.0,
        0.0,
        0.0,
        -1.0
      ],
      "translation": [
        -42.2978363,
        -3.4477284,
        -38.4447746
      ],
      "name": "Tree_01 (19)"
    },
    {
      "mesh": 0,
      "rotation": [
        0.0,
        0.0,
        0.0,
        -1.0
      ],
      "translation": [
        -42.2978363,
        -3.4477284,
        -48.9947739
      ],
      "name": "Tree_01 (22)"
    },
    {
      "mesh": 0,
      "rotation": [
        0.0,
        0.0,
        0.0,
        -1.0
      ],
      "translation": [
        -49.1278343,
        -3.4477284,
        -48.9947739
      ],
      "name": "Tree_01 (23)"
    },
    {
      "mesh": 0,
      "rotation": [
        0.0,
        0.0,
        0.0,
        -1.0
      ],
      "translation": [
        -49.1378326,
        -3.4477284,
        -38.4447746
      ],
      "name": "Tree_01 (26)"
    },
    {
      "mesh": 0,
      "rotation": [
        0.0,
        0.0,
        0.0,
        -1.0
      ],
      "translation": [
        -49.1278343,
        -3.4477284,
        -6.11477852
      ],
      "name": "Tree_01 (18)"
    },
    {
      "mesh": 0,
      "rotation": [
        0.0,
        0.0,
        0.0,
        -1.0
      ],
      "translation": [
        -42.2978363,
        -3.4477284,
        -6.11477852
      ],
      "name": "Tree_01 (13)"
    },
    {
      "mesh": 0,
      "rotation": [
        0.0,
        0.0,
        0.0,
        -1.0
      ],
      "translation": [
        -42.2978363,
        -3.4477284,
        4.43522263
      ],
      "name": "Tree_01 (11)"
    },
    {
      "mesh": 0,
      "rotation": [
        0.0,
        0.0,
        0.0,
        -1.0
      ],
      "translation": [
        -49.1278343,
        -3.4477284,
        -27.0847778
      ],
      "name": "Tree_01 (9)"
    },
    {
      "mesh": 0,
      "rotation": [
        0.0,
        0.0,
        0.0,
        -1.0
      ],
      "translation": [
        -49.1378326,
        -3.4477284,
        -16.5347767
      ],
      "name": "Tree_01 (7)"
    },
    {
      "mesh": 0,
      "rotation": [
        0.0,
        0.0,
        0.0,
        -1.0
      ],
      "translation": [
        -42.2978363,
        -3.4477284,
        -27.0847778
      ],
      "name": "Tree_01 (5)"
    },
    {
      "mesh": 0,
      "rotation": [
        0.0,
        0.0,
        0.0,
        -1.0
      ],
      "scale": [
        0.7,
        0.7,
        0.7
      ],
      "translation": [
        -17.3778343,
        -3.4477284,
        -17.7247772
      ],
      "name": "Tree_01 (2)"
    },
    {
      "mesh": 2,
      "rotation": [
        0.0,
        0.0,
        0.0,
        -1.0
      ],
      "scale": [
        0.7,
        0.7,
        0.7
      ],
      "translation": [
        -36.1778336,
        -3.46172857,
        -12.0847778
      ],
      "name": "Tree_03 (1)"
    },
    {
      "mesh": 0,
      "rotation": [
        0.0,
        0.0,
        0.0,
        -1.0
      ],
      "translation": [
        -42.2978363,
        -3.4477284,
        -16.5347767
      ],
      "name": "Tree_01 (1)"
    },
    {
      "mesh": 0,
      "rotation": [
        0.0,
        0.0,
        0.0,
        -1.0
      ],
      "scale": [
        0.7,
        0.7,
        0.7
      ],
      "translation": [
        -22.2678356,
        -3.4477284,
        -21.4547768
      ],
      "name": "Tree_01"
    },
    {
      "mesh": 2,
      "rotation": [
        0.0,
        0.0,
        0.0,
        -1.0
      ],
      "scale": [
        0.7,
        0.7,
        0.7
      ],
      "translation": [
        -17.3378353,
        -3.46172857,
        -36.0647774
      ],
      "name": "Tree_03"
    },
    {
      "mesh": 3,
      "rotation": [
        0.0,
        0.0,
        0.0,
        -1.0
      ],
      "translation": [
        -36.72443,
        -3.45172834,
        -30.2958679
      ],
      "name": "Tree_02 (4)"
    },
    {
      "mesh": 3,
      "rotation": [
        0.0,
        0.0,
        0.0,
        -1.0
      ],
      "translation": [
        -29.0828457,
        -3.45172834,
        -15.1947775
      ],
      "name": "Tree_02 (5)"
    },
    {
      "mesh": 4,
      "rotation": [
        0.0,
        0.0,
        0.0,
        -1.0
      ],
      "translation": [
        -33.0778351,
        -3.02991176,
        -11.8247776
      ],
      "name": "Tree1 (4)"
    },
    {
      "mesh": 4,
      "rotation": [
        0.0,
        0.0,
        0.0,
        -1.0
      ],
      "translation": [
        -5.0478344,
        -3.40172768,
        -11.714777
      ],
      "name": "Tree1 (5)"
    },
    {
      "mesh": 4,
      "rotation": [
        0.0,
        0.0,
        0.0,
        -1.0
      ],
      "translation": [
        -36.0026,
        -3.358135,
        -15.38831
      ],
      "name": "Tree1 (6)"
    },
    {
      "mesh": 3,
      "rotation": [
        0.0,
        0.0,
        0.0,
        -1.0
      ],
      "translation": [
        -5.37783432,
        -3.45172834,
        4.09522247
      ],
      "name": "Tree_02 (8)"
    },
    {
      "mesh": 1,
      "rotation": [
        2.18556941E-08,
        0.0,
        0.0,
        -1.0
      ],
      "translation": [
        -2.09783554,
        -2.90172839,
        3.93522263
      ],
      "name": "Poplar_Tree (20)"
    },
    {
      "mesh": 2,
      "rotation": [
        0.0,
        0.0,
        0.0,
        -1.0
      ],
      "translation": [
        -10.6378355,
        -3.51172853,
        6.33522224
      ],
      "name": "Tree_03 (5)"
    },
    {
      "mesh": 0,
      "rotation": [
        0.0,
        0.0,
        0.0,
        -1.0
      ],
      "scale": [
        0.7,
        0.7,
        0.7
      ],
      "translation": [
        -7.487835,
        -3.4477284,
        6.83522224
      ],
      "name": "Tree_01 (4)"
    },
    {
      "mesh": 1,
      "rotation": [
        2.18556941E-08,
        0.0,
        0.0,
        -1.0
      ],
      "translation": [
        -0.0378360748,
        -2.90172839,
        -0.00477790833
      ],
      "name": "Poplar_Tree (22)"
    },
    {
      "mesh": 4,
      "rotation": [
        0.0,
        0.0,
        0.0,
        -1.0
      ],
      "translation": [
        -9.007835,
        -3.40172768,
        3.495222
      ],
      "name": "Tree1 (7)"
    },
    {
      "mesh": 1,
      "rotation": [
        2.18556941E-08,
        0.0,
        0.0,
        -1.0
      ],
      "translation": [
        -33.7178345,
        -3.3917284,
        -41.35478
      ],
      "name": "Poplar_Tree (18)"
    },
    {
      "mesh": 1,
      "rotation": [
        2.18556941E-08,
        0.0,
        0.0,
        -1.0
      ],
      "scale": [
        0.94801,
        0.94801,
        0.94801
      ],
      "translation": [
        -24.9508343,
        -3.3917284,
        -37.98478
      ],
      "name": "Poplar_Tree (19)"
    }
  ],
  "scene": 0,
  "scenes": [
    {
      "nodes": [
        0
      ],
      "name": "p_tree"
    }
  ]
}